{"title":"Van Wilder-Freshman Year-AC3-5,1-DVDRip[Eng]2009","uid":4997049,"size":1463211135,"categoryP":"video","categoryS":"movies","magnet":"?xt=urn:btih:5f43f69c9c5bb649c4814077ea66dbbf6cabef8a&amp;dn=Van+Wilder-Freshman+Year-AC3-5%2C1-DVDRip%5BEng%5D2009&amp;tr=udp%3A%2F%2Ftracker.openbittorrent.com%3A80&amp;tr=udp%3A%2F%2Fopen.demonii.com%3A1337&amp;tr=udp%3A%2F%2Ftracker.coppersurfer.tk%3A6969&amp;tr=udp%3A%2F%2Fexodus.desync.com%3A6969","seeders":0,"leechers":0,"uploader":"FatFreddy31","files":3,"time":1247335754,"description":" &lt;a href=&quot;http://www.imdb.com/title/tt1276434/&quot; rel=&quot;nofollow&quot; target=&quot;_NEW&quot;&gt;http://www.imdb.com/title/tt1276434/&lt;/a&gt;\n\nAlso Known As:\n\nVan Wilder 3 (USA) (working title) (USA)\nNational Lampoon's Van Wilder 3 (USA) (working title) \n\n\nUser Rating:4.4/10 - 302 votes\n\nComedy\n\nDirector:Harvey Glazer\n\nCast:Jonathan Bennett/Kristin Cavallari/Jerry Shea,and others.\n\nPlot:\nVan Wilder: Freshman Year bringing back the charismatic ladies/party man (he did stick around college for seven years after all).The movie begins with Van Wilder (Jonathan Bennett) graduating from high school and giving an... arousing speech to the graduates (with the help of the valedictorian). He was supposed to spend the summer in Amsterdam with his father but those plans fell through, but a good time overseas Van did have. He returns back to U.S. and on the Coolidge College campus in style with two hot women and a stretch limo. The Dean of Students, Charles Reardon (Kirk Fuller), runs the campus with an iron fist: no drinking, no kissing and no drugs. He also has a personal hatred for the Wilder clan who are 5 generation legacies at Coolidge....\n\nInfo:\n\nGeneral\nComplete name                    : Van Wilder-Freshman Year-AC3-5,1-DVDRip[Eng]2009.avi\nFormat                           : AVI\nFormat/Info                      : Audio Video Interleave\nFile size                        : 1.36 GiB\nDuration                         : 1h 40mn\nOverall bit rate                 : 1 938 Kbps\nWriting application              : VirtualDubMod 1.5.4.1 (build 2178/release)\nWriting library                  : VirtualDubMod build 2178/release\n\nVideo\nFormat                           : MPEG-4 Visual\nFormat profile                   : Simple@L3\nFormat settings, BVOP            : No\nFormat settings, QPel            : No\nFormat settings, GMC             : No warppoints\nFormat settings, Matrix          : Default\nCodec ID                         : XVID\nCodec ID/Hint                    : XviD\nDuration                         : 1h 40mn\nBit rate                         : 1 481 Kbps\nWidth                            : 720 pixels\nHeight                           : 416 pixels\nDisplay aspect ratio             : 16/9\nFrame rate                       : 23.976 fps\nResolution                       : 24 bits\nColorimetry                      : 4:2:0\nScan type                        : Progressive\nBits/(Pixel*Frame)               : 0.206\nStream size                      : 1.04 GiB (76%)\nWriting library                  : XviD 1.1.2 (UTC 2006-11-01)\n\nAudio\nFormat                           : AC-3\nFormat/Info                      : Audio Coding 3\nCodec ID                         : 2000\nDuration                         : 1h 40mn\nBit rate mode                    : Constant\nBit rate                         : 448 Kbps\nChannel(s)                       : 6 channels\nChannel positions                : Front: L C R, Surround: L R, LFE\nSampling rate                    : 48.0 KHz\nStream size                      : 323 MiB (23%)\nAlignment                        : Split accross interleaves\nInterleave, duration             : 42 ms (1.00 video frame)\nInterleave, preload duration     : 500 ms\n\nEnjoy...","torrent":{"xt":"urn:btih:5f43f69c9c5bb649c4814077ea66dbbf6cabef8a","amp;dn":"Van+Wilder-Freshman+Year-AC3-5%2C1-DVDRip%5BEng%5D2009","amp;tr":["udp%3A%2F%2Ftracker.openbittorrent.com%3A80","udp%3A%2F%2Fopen.demonii.com%3A1337","udp%3A%2F%2Ftracker.coppersurfer.tk%3A6969","udp%3A%2F%2Fexodus.desync.com%3A6969"],"infoHash":"5f43f69c9c5bb649c4814077ea66dbbf6cabef8a","infoHashBuffer":{"type":"Buffer","data":[95,67,246,156,156,91,182,73,196,129,64,119,234,102,219,191,108,171,239,138]},"announce":[],"urlList":[]}}